<svg width="39" height="39" viewBox="0 0 39 39" fill="none" xmlns="http://www.w3.org/2000/svg">
<g clip-path="url(#clip0_481_4)">
<path d="M4.625 34.375H7.65313L28.425 13.6031L25.3969 10.575L4.625 31.3469V34.375ZM0.375 38.625V29.5938L28.425 1.59688C28.85 1.20729 29.3193 0.90625 29.8328 0.69375C30.3464 0.48125 30.8865 0.375 31.4531 0.375C32.0198 0.375 32.5688 0.48125 33.1 0.69375C33.6313 0.90625 34.0917 1.225 34.4813 1.65L37.4031 4.625C37.8281 5.01458 38.138 5.475 38.3328 6.00625C38.5276 6.5375 38.625 7.06875 38.625 7.6C38.625 8.16667 38.5276 8.70677 38.3328 9.22031C38.138 9.73385 37.8281 10.2031 37.4031 10.6281L9.40625 38.625H0.375ZM26.8844 12.1156L25.3969 10.575L28.425 13.6031L26.8844 12.1156Z" fill="black"/>
</g>
<defs>
<clipPath id="clip0_481_4">
<rect width="39" height="39" fill="white"/>
</clipPath>
</defs>
</svg>
