<svg width="63" height="63" viewBox="0 0 63 63" fill="none" xmlns="http://www.w3.org/2000/svg">
<path d="M31.5 31.4344C28.6125 31.4344 26.25 30.5156 24.4125 28.6781C22.575 26.8406 21.6562 24.4781 21.6562 21.5906C21.6562 18.7031 22.575 16.3406 24.4125 14.5031C26.25 12.6656 28.6125 11.7469 31.5 11.7469C34.3875 11.7469 36.75 12.6656 38.5875 14.5031C40.425 16.3406 41.3437 18.7031 41.3437 21.5906C41.3437 24.4781 40.425 26.8406 38.5875 28.6781C36.75 30.5156 34.3875 31.4344 31.5 31.4344ZM10.5 52.5V46.3313C10.5 44.6688 10.9156 43.2469 11.7469 42.0656C12.5781 40.8844 13.65 39.9875 14.9625 39.375C17.8937 38.0625 20.7047 37.0781 23.3953 36.4219C26.0859 35.7656 28.7875 35.4375 31.5 35.4375C34.2125 35.4375 36.9031 35.7766 39.5719 36.4547C42.2406 37.1328 45.0389 38.1105 47.9667 39.3877C49.3361 40.0058 50.434 40.9019 51.2604 42.0761C52.0868 43.2504 52.5 44.6688 52.5 46.3313V52.5H10.5ZM14.4375 48.5625H48.5625V46.3313C48.5625 45.6313 48.3547 44.9641 47.9391 44.3297C47.5234 43.6953 47.0094 43.225 46.3969 42.9188C43.5969 41.5625 41.0375 40.6328 38.7187 40.1297C36.4 39.6266 33.9937 39.375 31.5 39.375C29.0062 39.375 26.5781 39.6266 24.2156 40.1297C21.8531 40.6328 19.2937 41.5625 16.5375 42.9188C15.925 43.225 15.4219 43.6953 15.0281 44.3297C14.6344 44.9641 14.4375 45.6313 14.4375 46.3313V48.5625ZM31.5 27.4969C33.2062 27.4969 34.6172 26.9391 35.7328 25.8234C36.8484 24.7078 37.4062 23.2969 37.4062 21.5906C37.4062 19.8844 36.8484 18.4734 35.7328 17.3578C34.6172 16.2422 33.2062 15.6844 31.5 15.6844C29.7937 15.6844 28.3828 16.2422 27.2672 17.3578C26.1516 18.4734 25.5937 19.8844 25.5937 21.5906C25.5937 23.2969 26.1516 24.7078 27.2672 25.8234C28.3828 26.9391 29.7937 27.4969 31.5 27.4969Z" fill="black"/>
</svg>
