<svg width="43" height="42" viewBox="0 0 43 42" fill="none" xmlns="http://www.w3.org/2000/svg">
<path d="M37.3333 21C37.3333 16.45 35.7486 12.5903 32.5792 9.42083C29.4097 6.25139 25.55 4.66667 21 4.66667V0C23.9167 0 26.6486 0.554167 29.1958 1.6625C31.7431 2.77083 33.9597 4.26806 35.8458 6.15417C37.7319 8.04028 39.2292 10.2569 40.3375 12.8042C41.4458 15.3514 42 18.0833 42 21H37.3333ZM28 21C28 19.0556 27.3194 17.4028 25.9583 16.0417C24.5972 14.6806 22.9444 14 21 14V9.33333C24.2278 9.33333 26.9792 10.4708 29.2542 12.7458C31.5292 15.0208 32.6667 17.7722 32.6667 21H28ZM39.55 42C34.6889 42 29.8861 40.9403 25.1417 38.8208C20.3972 36.7014 16.0806 33.6972 12.1917 29.8083C8.30278 25.9194 5.29861 21.6028 3.17917 16.8583C1.05972 12.1139 0 7.31111 0 2.45C0 1.75 0.233333 1.16667 0.7 0.7C1.16667 0.233333 1.75 0 2.45 0H11.9C12.4444 0 12.9306 0.184722 13.3583 0.554167C13.7861 0.923611 14.0389 1.36111 14.1167 1.86667L15.6333 10.0333C15.7111 10.6556 15.6917 11.1806 15.575 11.6083C15.4583 12.0361 15.2444 12.4056 14.9333 12.7167L9.275 18.4333C10.0528 19.8722 10.9764 21.2625 12.0458 22.6042C13.1153 23.9458 14.2917 25.2389 15.575 26.4833C16.7806 27.6889 18.0444 28.8069 19.3667 29.8375C20.6889 30.8681 22.0889 31.8111 23.5667 32.6667L29.05 27.1833C29.4 26.8333 29.8569 26.5708 30.4208 26.3958C30.9847 26.2208 31.5389 26.1722 32.0833 26.25L40.1333 27.8833C40.6778 28.0389 41.125 28.3208 41.475 28.7292C41.825 29.1375 42 29.5944 42 30.1V39.55C42 40.25 41.7667 40.8333 41.3 41.3C40.8333 41.7667 40.25 42 39.55 42ZM7.05833 14L10.9083 10.15L9.91667 4.66667H4.725C4.91944 6.26111 5.19167 7.83611 5.54167 9.39167C5.89167 10.9472 6.39722 12.4833 7.05833 14ZM27.9417 34.8833C29.4583 35.5444 31.0042 36.0694 32.5792 36.4583C34.1542 36.8472 35.7389 37.1 37.3333 37.2167V32.0833L31.85 30.975L27.9417 34.8833Z" fill="black"/>
</svg>
